<?xml version="1.0" encoding="iso-8859-1"?>
<!-- Generator: Adobe Illustrator 19.0.0, SVG Export Plug-In . SVG Version: 6.00 Build 0)  -->
<svg version="1.1" id="Layer_1" xmlns="http://www.w3.org/2000/svg" xmlns:xlink="http://www.w3.org/1999/xlink" x="0px" y="0px"
	 viewBox="0 0 512 512" style="enable-background:new 0 0 512 512;" xml:space="preserve">
<circle style="fill:#FFAC33;" cx="256" cy="256" r="256"/>
<path style="fill:#F2853B;" d="M512,256c0-2.457-0.043-4.904-0.112-7.344L375.219,109.59c-2.247-2.549-5.53-4.163-9.175-4.163
	H92.886c-6.737,0-12.25,5.513-12.25,12.25V321.4H55c-4.95,0-9,4.05-9,9v15.845c0,2.475,1.013,4.725,2.644,6.356l158.005,154.626
	C222.619,510.348,239.116,512,256,512C397.385,512,512,397.385,512,256z"/>
<path style="fill:#6A00F4;" d="M378.294,331.588H80.636V117.677c0-6.737,5.512-12.25,12.25-12.25h273.158
	c6.737,0,12.25,5.513,12.25,12.25V331.588z"/>
<path style="fill:#003F84;" d="M378.29,117.68v201.66c0,6.74-5.51,12.25-12.25,12.25H229.47V105.43h136.57
	C372.78,105.43,378.29,110.94,378.29,117.68z"/>
<rect x="96.21" y="119.69" style="fill:#9560FC;" width="266.52" height="185.41"/>
<rect x="229.47" y="119.69" style="fill:#6A00F4;" width="133.25" height="185.41"/>
<path style="fill:#0088FF;" d="M403.93,355.246H55c-4.95,0-9-4.05-9-9V330.4c0-4.95,4.05-9,9-9h348.93c4.95,0,9,4.05,9,9v15.846
	C412.93,351.196,408.88,355.246,403.93,355.246z"/>
<g>
	<path style="fill:#6A00F4;" d="M412.93,330.4v15.85c0,4.95-4.05,9-9,9H229.47V321.4h174.46
		C408.88,321.4,412.93,325.45,412.93,330.4z"/>
	<rect x="144.47" y="331.46" style="fill:#6A00F4;" width="170" height="13.723"/>
</g>
<rect x="229.47" y="331.46" style="fill:#003F84;" width="84.999" height="13.72"/>
<path style="fill:#9A4C00;" d="M433.787,339.518c-18.058,0-32.748-14.691-32.748-32.749c0-18.057,14.691-32.748,32.748-32.748
	c18.058,0,32.748,14.691,32.748,32.748C466.536,324.827,451.845,339.518,433.787,339.518z M433.787,286.597
	c-11.123,0-20.173,9.049-20.173,20.173c0,11.123,9.05,20.173,20.173,20.173c11.123,0,20.173-9.05,20.173-20.173
	C453.96,295.646,444.91,286.597,433.787,286.597z"/>
<polygon style="fill:#C06200;" points="387.344,372.888 301.627,372.888 289.706,401.271 399.265,401.271 "/>
<polygon style="fill:#9A4C00;" points="399.264,401.272 344.609,401.272 344.609,372.887 387.346,372.887 392.308,384.702 
	398.463,399.365 "/>
<path style="fill:#FFF5CB;" d="M304.492,385.387h79.988c24.837,0,45.158-20.321,45.158-45.158V263.01H259.335v77.218
	C259.335,365.065,279.655,385.387,304.492,385.387z"/>
<path style="fill:#FFED97;" d="M429.637,263.01v77.217c0,22.169-16.188,40.744-37.328,44.475c-2.544,0.452-5.158,0.686-7.827,0.686
	H344.61V263.01H429.637z"/>
<rect x="251.05" y="399.25" style="fill:#FFF5CB;" width="187.12" height="15.801"/>
<rect x="344.61" y="399.25" style="fill:#FFED97;" width="93.56" height="15.801"/>
<g>
</g>
<g>
</g>
<g>
</g>
<g>
</g>
<g>
</g>
<g>
</g>
<g>
</g>
<g>
</g>
<g>
</g>
<g>
</g>
<g>
</g>
<g>
</g>
<g>
</g>
<g>
</g>
<g>
</g>
</svg>
