<?xml version="1.0" encoding="UTF-8" standalone="no"?>
<svg width="220px" height="52px" viewBox="0 0 220 52" version="1.1" xmlns="http://www.w3.org/2000/svg" xmlns:xlink="http://www.w3.org/1999/xlink" xmlns:sketch="http://www.bohemiancoding.com/sketch/ns">
    <!-- Generator: Sketch 3.4 (15588) - http://www.bohemiancoding.com/sketch -->
    <title>Page 1</title>
    <desc>Created with Sketch.</desc>
    <defs>
        <path id="path-1" d="M0,0.636 L219.926953,0.636 L219.926953,53 L0,53 L0,0.636 Z"></path>
        <path id="path-3" d="M0,0.636 L219.926953,0.636 L219.926953,53 L0,53"></path>
        <path id="path-5" d="M0,0.636 L219.926953,0.636 L219.926953,53 L0,53 L0,0.636 Z"></path>
        <path id="path-7" d="M0,1 L220,1 L220,53 L0,53 L0,1 Z"></path>
    </defs>
    <g id="Welcome" stroke="none" stroke-width="1" fill="none" fill-rule="evenodd" sketch:type="MSPage">
        <g id="Desktop-large" sketch:type="MSArtboardGroup" transform="translate(-41.000000, -24.000000)">
            <g id="Page-1" sketch:type="MSLayerGroup" transform="translate(41.000000, 23.000000)">
                <g id="Group-3">
                    <mask id="mask-2" sketch:name="Clip 2" fill="white">
                        <use xlink:href="#path-1"></use>
                    </mask>
                    <g id="Clip-2"></g>
                    <path d="M15.807,40.1164694 C15.6729375,38.782921 15.1899687,37.7297597 14.3589531,36.9552758 C13.5279375,36.1825016 12.4949687,35.7952597 11.2617656,35.7952597 C10.0010625,35.7952597 8.96207812,36.1893403 8.1448125,36.9757919 C7.3266875,37.7630984 6.85059375,38.8102758 6.71653125,40.1164694 L15.807,40.1164694 Z M11.3425469,52.9997435 C9.57223437,52.9997435 7.98325,52.7125177 6.57645312,52.1397758 C5.1679375,51.566179 3.97426562,50.7857113 2.99629687,49.7992274 C2.01660937,48.8127435 1.27325,47.6723887 0.763640625,46.3781629 C0.25403125,45.0847919 -0.00034375,43.7315823 -0.00034375,42.3168242 C-0.00034375,40.7960661 0.25403125,39.3633565 0.763640625,38.0152758 C1.27325,36.6689048 2.01059375,35.4892274 2.97567187,34.4745339 C3.94075,33.46155 5.12754687,32.661421 6.5360625,32.0741468 C7.94371875,31.4877274 9.54559375,31.1936629 11.3425469,31.1936629 C13.1395,31.1936629 14.7345,31.4877274 16.1292656,32.0741468 C17.5231719,32.661421 18.7030937,33.4547113 19.6681719,34.4548726 C20.6341094,35.4550339 21.3645781,36.6090661 21.8604375,37.9161145 C22.3562969,39.2231629 22.6046562,40.5968887 22.6046562,42.0372919 C22.6046562,42.4108565 22.5917656,42.7767274 22.5642656,43.1374694 C22.537625,43.4973565 22.4972344,43.8110823 22.4439531,44.0777919 L6.83684375,44.0777919 C6.94426562,45.4916952 7.46075,46.5645177 8.38629687,47.2979694 C9.31098437,48.0322758 10.3628594,48.3981468 11.5436406,48.3981468 C12.4820781,48.3981468 13.387,48.1724694 14.2584062,47.71855 C15.1298125,47.2654855 15.7133281,46.6517113 16.0080937,45.8780823 L21.478875,47.3988403 C20.647,49.0529532 19.3605156,50.3993242 17.6168438,51.4396629 C15.8740312,52.4791468 13.7823125,52.9997435 11.3425469,52.9997435 L11.3425469,52.9997435 Z" id="Fill-1" fill="#939598" sketch:type="MSShapeGroup" mask="url(#mask-2)"></path>
                </g>
                <path d="M63.0838244,40.0021561 C62.9465501,38.6567486 62.4551606,37.5942216 61.609656,36.8128504 C60.7650257,36.033204 59.7140468,35.6425183 58.4593423,35.6425183 C57.1766584,35.6425183 56.119559,36.0401035 55.2871697,36.8335489 C54.4547805,37.6278568 53.9712602,38.6843467 53.8348603,40.0021561 L63.0838244,40.0021561 Z M58.541532,53 C56.7403535,53 55.1236647,52.7102199 53.6914655,52.1323846 C52.2592663,51.5536869 51.0447824,50.7662786 50.0497624,49.771022 C49.0529937,48.7757654 48.2957993,47.6252695 47.7781791,46.3195343 C47.2588101,45.0146615 47,43.6494179 47,42.2220785 C47,40.6877965 47.2588101,39.2423458 47.7781791,37.8822768 C48.2957993,36.5239327 49.0459989,35.3337646 50.0287778,34.3100474 C51.0106824,33.2880552 52.2181715,32.4808107 53.6503707,31.8883139 C55.0834442,31.2966796 56.7132484,31 58.541532,31 C60.3689413,31 61.9917506,31.2966796 63.4108344,31.8883139 C64.8290439,32.4808107 66.0304125,33.2811557 67.012317,34.2902113 C67.9942216,35.2992669 68.7374263,36.4635619 69.2428056,37.7822337 C69.7473104,39.1009056 70,40.4868478 70,41.9400604 C70,42.316947 69.9860103,42.6860716 69.9589052,43.0500216 C69.9309257,43.4131091 69.8907052,43.7296248 69.836495,43.9987063 L53.9572705,43.9987063 C54.0665653,45.4251833 54.5920547,46.5075464 55.5328645,47.2475205 C56.4736742,47.9883571 57.5447634,48.3574817 58.7452576,48.3574817 C59.700057,48.3574817 60.6216309,48.1297973 61.5082304,47.6718413 C62.3939555,47.2147477 62.9876449,46.5955153 63.2875499,45.8150065 L68.8545904,47.3492885 C68.0082114,49.0181113 66.6984224,50.3764554 64.924349,51.4260457 C63.15115,52.4747736 61.0238358,53 58.541532,53 L58.541532,53 Z" id="Fill-4" fill="#939598" sketch:type="MSShapeGroup"></path>
                <path d="M85,36.713192 C83.4894777,36.7392873 82.1307584,36.9892973 80.9196715,37.4615385 C79.7102528,37.9346214 78.8186193,38.643404 78.245605,39.5895699 L78.245605,52 L72,52 L72,31.3156692 L77.7384833,31.3156692 L77.7384833,35.4917625 C78.4666367,34.1002926 79.3849609,33.0160741 80.4909534,32.2416323 C81.596946,31.4671904 82.7746696,31.0530324 84.0241242,31 C84.5437572,31 84.8698832,31.0134686 85,31.0395639 L85,36.713192 Z" id="Fill-6" fill="#939598" sketch:type="MSShapeGroup"></path>
                <g id="Group-10">
                    <mask id="mask-4" sketch:name="Clip 9" fill="white">
                        <use xlink:href="#path-3"></use>
                    </mask>
                    <g id="Clip-9"></g>
                    <path d="M100.086938,47.5984452 C100.838031,47.5984452 101.528969,47.4582516 102.158891,47.1787194 C102.788813,46.8983323 103.325922,46.517929 103.767641,46.0383645 C104.210219,45.5579452 104.551391,44.9911871 104.793734,44.3380903 C105.035219,43.6841387 105.154672,42.9712032 105.154672,42.1967194 C105.154672,41.4504452 105.041234,40.7366548 104.8135,40.0562032 C104.584906,39.3766065 104.256625,38.7824935 103.828656,38.276429 C103.398969,37.7695097 102.896234,37.3694452 102.319594,37.0753806 C101.742953,36.782171 101.106156,36.6351387 100.409203,36.6351387 C99.389125,36.6351387 98.4575625,36.9830581 97.6136563,37.6763323 C96.7688906,38.3696065 96.1183438,39.2364129 95.662875,40.2767516 L95.662875,44.6774613 C96.1183438,45.5853 96.7482656,46.2982355 97.5535,46.8179774 C98.357875,47.3385742 99.2026406,47.5984452 100.086938,47.5984452 M101.896781,53.000171 C100.288031,53.000171 98.88725,52.6599452 97.6944375,51.9794935 C96.5007656,51.2998968 95.5554531,50.3458968 94.8585,49.1192032 L94.8585,52.6001065 L89.2270156,52.6001065 L89.2270156,23.3919774 L95.662875,23.3919774 L95.662875,35.0348806 C96.3598281,33.8346871 97.2913906,32.8943645 98.4575625,32.2139129 C99.6245938,31.5343161 101.012484,31.1940903 102.621234,31.1940903 C103.961859,31.1940903 105.189047,31.4813161 106.301078,32.0540581 C107.413969,32.6285097 108.373891,33.4081226 109.177406,34.3954613 C109.982641,35.3819452 110.611703,36.5496548 111.068031,37.8960258 C111.524359,39.2432516 111.752094,40.6768161 111.752094,42.1967194 C111.752094,43.7174774 111.503734,45.1382194 111.007875,46.4580903 C110.511156,47.7779613 109.821078,48.9260097 108.936781,49.8988161 C108.051625,50.8733323 107.005766,51.6332839 105.798344,52.1795258 C104.591781,52.7266226 103.291547,53.000171 101.896781,53.000171" id="Fill-8" fill="#939598" sketch:type="MSShapeGroup" mask="url(#mask-4)"></path>
                </g>
                <path d="M114,23 L120.175337,23 L120.175337,44.6779901 C120.175337,46.3016277 120.844078,47.1134465 122.182384,47.1134465 C122.465217,47.1134465 122.793403,47.0596722 123.166117,46.9512562 C123.538831,46.8437075 123.88021,46.7075371 124.188606,46.5453468 L125,51.7822718 C124.227361,52.1612941 123.340105,52.4587875 122.336582,52.6747521 C121.333883,52.891584 120.407046,53 119.557721,53 C117.782384,53 116.412744,52.5125618 115.447976,51.5385527 C114.483208,50.5636763 114,49.1568707 114,47.3164012 L114,23 Z" id="Fill-11" fill="#939598" sketch:type="MSShapeGroup"></path>
                <path d="M134.571662,53 C132.434759,53 130.805542,52.3391638 129.683154,51.0174913 C128.560766,49.6966575 128,47.7535642 128,45.18905 L128,32 L134.411566,32 L134.411566,43.8145441 C134.411566,45.0708039 134.66498,46.0327064 135.172666,46.7002516 C135.680352,47.3669582 136.40207,47.7007308 137.336109,47.7007308 C138.19224,47.7007308 139.019263,47.4793339 139.821458,47.0331856 C140.62194,46.5887145 141.330817,45.8171798 141.944663,44.7177429 L141.944663,32 L148.357084,32 L148.357084,45.5421109 C148.357084,46.1702408 148.476087,46.6088415 148.71666,46.8570744 C148.957232,47.1061459 149.384442,47.2562597 150,47.3082545 L150,52.6075237 C149.331362,52.7383491 148.750905,52.8230502 148.256061,52.8624656 C147.761217,52.9018809 147.327159,52.9211693 146.953886,52.9211693 C144.709966,52.8951719 143.413784,52.0188092 143.067051,50.2912424 L142.946336,49.0349826 C141.984901,50.3969091 140.789742,51.3973883 139.360859,52.0380975 C137.93112,52.6788068 136.335292,53 134.571662,53" id="Fill-13" fill="#939598" sketch:type="MSShapeGroup"></path>
                <path d="M187,52 L180.639209,52 L180.639209,40.4202708 C180.639209,39.0600216 180.393714,38.0729603 179.903573,37.4574098 C179.411733,36.842698 178.756796,36.5349227 177.935363,36.5349227 C177.086748,36.5349227 176.257671,36.8754043 175.44983,37.5555289 C174.64114,38.2356535 174.051611,39.1128549 173.680395,40.1854559 L173.680395,52 L167.319605,52 L167.319605,40.4202708 C167.319605,39.0600216 167.074109,38.0729603 166.583968,37.4574098 C166.092978,36.842698 165.437191,36.5349227 164.615759,36.5349227 C163.767144,36.5349227 162.938916,36.8686953 162.131075,37.5354019 C161.321535,38.2029472 160.732007,39.0860189 160.36164,40.1854559 L160.36164,52 L154,52 L154,31.393315 L159.725391,31.393315 L159.725391,34.8467713 C160.494157,33.5913502 161.540697,32.6361567 162.866711,31.9811908 C164.191027,31.3279022 165.729407,31 167.478454,31 C168.32707,31 169.081394,31.1048281 169.744826,31.3144842 C170.407408,31.5241404 170.970603,31.8117887 171.434411,32.1782676 C171.898219,32.5447466 172.283026,32.9699293 172.587134,33.4538157 C172.892092,33.9377022 173.110405,34.454295 173.243771,35.0035941 C174.011687,33.7221756 175.046334,32.7342758 176.344316,32.0407332 C177.643148,31.3480292 179.127162,31 180.79721,31 C182.123224,31 183.190151,31.2432012 183.998842,31.726249 C184.806682,32.210974 185.435286,32.8391039 185.886352,33.6106386 C186.337418,34.3830119 186.63558,35.2266683 186.781688,36.1424464 C186.926946,37.0590631 187,37.9480053 187,38.81095 L187,52 Z" id="Fill-15" fill="#939598" sketch:type="MSShapeGroup"></path>
                <path d="M205.083561,40.0021561 C204.947156,38.6567486 204.455748,37.5942216 203.610211,36.8128504 C202.764675,36.033204 201.713656,35.6425183 200.458904,35.6425183 C199.176171,35.6425183 198.119031,36.0401035 197.287485,36.8335489 C196.455064,37.6278568 195.970651,38.6843467 195.834246,40.0021561 L205.083561,40.0021561 Z M200.541096,53 C198.739849,53 197.123099,52.7102199 195.69172,52.1323846 C194.258592,51.5536869 193.044062,50.7662786 192.049004,49.771022 C191.052197,48.7757654 190.295849,47.6252695 189.777334,46.3195343 C189.25882,45.0146615 189,43.6494179 189,42.2220785 C189,40.6877965 189.25882,39.2423458 189.777334,37.8822768 C190.295849,36.5239327 191.046077,35.3337646 192.028019,34.3100474 C193.00996,33.2880552 194.217495,32.4808107 195.650623,31.8883139 C197.082877,31.2966796 198.712743,31 200.541096,31 C202.36945,31 203.992321,31.2966796 205.411458,31.8883139 C206.829722,32.4808107 208.030262,33.2811557 209.012203,34.2902113 C209.99502,35.2992669 210.738253,36.4635619 211.242777,37.7822337 C211.747301,39.1009056 212,40.4868478 212,41.9400604 C212,42.316947 211.986884,42.6860716 211.958904,43.0500216 C211.931797,43.4131091 211.890701,43.7296248 211.836489,43.9987063 L195.956661,43.9987063 C196.06596,45.4251833 196.591469,46.5075464 197.533189,47.2475205 C198.474034,47.9883571 199.54429,48.3574817 200.745704,48.3574817 C201.70054,48.3574817 202.621274,48.1297973 203.507908,47.6718413 C204.394541,47.2147477 204.988253,46.5955153 205.288169,45.8150065 L210.854547,47.3492885 C210.008136,49.0181113 208.699171,50.3764554 206.92503,51.4260457 C205.151764,52.4747736 203.023495,53 200.541096,53 L200.541096,53 Z" id="Fill-17" fill="#939598" sketch:type="MSShapeGroup"></path>
                <g id="Group-21">
                    <mask id="mask-6" sketch:name="Clip 20" fill="white">
                        <use xlink:href="#path-5"></use>
                    </mask>
                    <g id="Clip-20"></g>
                    <path d="M215.919773,31.9063419 L216.882273,31.9063419 L217.936727,33.3715355 L218.99032,31.9063419 L219.927039,31.9063419 L219.927039,35.3769871 L219.067664,35.3769871 L219.067664,33.0338742 L217.962508,34.5546323 L217.885164,34.5546323 L216.778289,33.0338742 L216.778289,35.3769871 L215.919773,35.3769871 L215.919773,31.9063419 Z M212.966102,32.6056 L211.768992,32.6056 L211.768992,31.9063419 L215.074148,31.9063419 L215.074148,32.6056 L213.877039,32.6056 L213.877039,35.3769871 L212.966102,35.3769871 L212.966102,32.6056 Z" id="Fill-19" fill="#939598" sketch:type="MSShapeGroup" mask="url(#mask-6)"></path>
                </g>
                <path d="M39.3960826,29.0365133 L34.7938257,45.214465 L30.1690003,29 C27.6864551,29.1078417 25.2907122,29.3090896 23,29.5927047 L31.0153225,52 L38.0437031,52 L46,29.623274 C43.8854965,29.3540944 41.6789825,29.1553939 39.3960826,29.0365133" id="Fill-22" fill="#60473E" sketch:type="MSShapeGroup"></path>
                <path d="M19,10.2270331 C20.1291332,8.81773905 21.2574173,7.40929401 22.3865505,6 C28.1485255,10.6158624 33.3841376,15.8514745 38,21.6134495 C36.590706,22.7425827 35.1822609,23.8708668 33.7729669,25 C29.4058534,19.5487489 24.4512511,14.5941466 19,10.2270331" id="Fill-24" fill="#56ED6F" sketch:type="MSShapeGroup"></path>
                <path d="M47.6134495,6 C48.7425827,7.40929401 49.8708668,8.81773905 51,10.2270331 C45.5487489,14.5949955 40.5941466,19.5487489 36.2270331,25 C34.8177391,23.8708668 33.409294,22.7425827 32,21.6134495 C36.6158624,15.8523235 41.8514745,10.6158624 47.6134495,6" id="Fill-26" fill="#56ED6F" sketch:type="MSShapeGroup"></path>
                <path d="M37.4239785,20.0538418 C35.4755107,19.9820527 33.5244893,19.9820527 31.5760215,20.0538418 C26.0072682,20.2593382 20.4538371,21.052608 15,22.4327538 C15.4222106,24.2885025 15.8452724,26.1442513 16.267483,28 C21.367208,26.7095906 26.5597171,25.9674706 31.765846,25.7754347 C33.5874804,25.7081324 35.4116684,25.7081324 37.234154,25.7754347 C42.4402829,25.9674706 47.6319408,26.7095906 52.7316658,28 C53.1547276,26.1442513 53.5769382,24.2885025 54,22.4327538 C48.5453117,21.052608 42.9918806,20.2593382 37.4239785,20.0538418" id="Fill-28" fill="#56ED6F" sketch:type="MSShapeGroup"></path>
                <mask id="mask-8" sketch:name="Clip 31" fill="white">
                    <use xlink:href="#path-7"></use>
                </mask>
                <g id="Clip-31"></g>
                <path d="M37,23 L32,23 L32,1 L37,1 L37,23 Z" id="Fill-30" fill="#56ED6F" sketch:type="MSShapeGroup" mask="url(#mask-8)"></path>
            </g>
        </g>
    </g>
</svg>