<?xml version="1.0" encoding="iso-8859-1"?>
<!-- Generator: Adobe Illustrator 19.0.0, SVG Export Plug-In . SVG Version: 6.00 Build 0)  -->
<svg version="1.1" id="Layer_1" xmlns="http://www.w3.org/2000/svg" xmlns:xlink="http://www.w3.org/1999/xlink" x="0px" y="0px"
	 viewBox="0 0 512 512" style="enable-background:new 0 0 512 512;" xml:space="preserve">
<path style="fill:#D6E5F6;" d="M488.727,46.545H23.273C10.42,46.545,0,56.965,0,69.818v418.909C0,501.58,10.42,512,23.273,512
	h465.455C501.58,512,512,501.58,512,488.727V69.818C512,56.965,501.58,46.545,488.727,46.545z"/>
<path style="fill:#A7C7FC;" d="M488.727,46.545H256V512h232.727C501.58,512,512,501.58,512,488.727V69.818
	C512,56.965,501.58,46.545,488.727,46.545z"/>
<g>
	<rect x="116.364" y="364.606" style="fill:#D8143A;" width="31.03" height="31.03"/>
	<path style="fill:#D8143A;" d="M147.394,418.909h-31.03c-12.853,0-23.273-10.42-23.273-23.273v-31.03
		c0-12.853,10.42-23.273,23.273-23.273h31.03c12.853,0,23.273,10.42,23.273,23.273v31.03
		C170.667,408.489,160.247,418.909,147.394,418.909z"/>
	<path style="fill:#D8143A;" d="M488.727,46.545H23.273C10.42,46.545,0,56.965,0,69.818v93.091c0,12.853,10.42,23.273,23.273,23.273
		h465.455c12.853,0,23.273-10.42,23.273-23.273V69.818C512,56.965,501.58,46.545,488.727,46.545z"/>
</g>
<path style="fill:#8D1858;" d="M488.727,46.545H256v139.636h232.727c12.853,0,23.273-10.42,23.273-23.273V69.818
	C512,56.965,501.58,46.545,488.727,46.545z"/>
<path style="fill:#7075E0;" d="M333.576,0c-12.853,0-23.273,10.42-23.273,23.273v46.545c0,12.853,10.42,23.273,23.273,23.273
	s23.273-10.42,23.273-23.273V23.273C356.848,10.42,346.428,0,333.576,0z"/>
<path style="fill:#989DE9;" d="M178.424,0c-12.853,0-23.273,10.42-23.273,23.273v46.545c0,12.853,10.42,23.273,23.273,23.273
	c12.853,0,23.273-10.42,23.273-23.273V23.273C201.697,10.42,191.277,0,178.424,0z"/>
<g>
</g>
<g>
</g>
<g>
</g>
<g>
</g>
<g>
</g>
<g>
</g>
<g>
</g>
<g>
</g>
<g>
</g>
<g>
</g>
<g>
</g>
<g>
</g>
<g>
</g>
<g>
</g>
<g>
</g>
</svg>
