<?xml version="1.0" encoding="UTF-8" standalone="no"?>
<svg width="62px" height="40px" viewBox="0 0 62 40" version="1.1" xmlns="http://www.w3.org/2000/svg" xmlns:xlink="http://www.w3.org/1999/xlink">
    <!-- Generator: Sketch 43.2 (39069) - http://www.bohemiancoding.com/sketch -->
    <title>logo</title>
    <desc>Created with Sketch.</desc>
    <defs></defs>
    <g id="Symbols" stroke="none" stroke-width="1" fill="none" fill-rule="evenodd">
        <g id="Logo/Primary">
            <g id="logo" transform="translate(0.000000, 0.500000)">
                <path d="M4.46333052,21.6531812 L3.52710141,20.7100263 C-1.17570047,15.9724353 -1.17570047,8.29116541 3.52710141,3.55369173 C3.52727606,3.5533985 3.5274507,3.5533985 3.52762535,3.55310526 C8.23042723,-1.18436842 15.8551756,-1.18436842 20.5579775,3.55310526 L21.4942066,4.49643609 L22.4304357,3.55310526 C27.1332376,-1.18436842 34.7578404,-1.18436842 39.4608169,3.55310526 C39.4608169,3.5533985 39.461108,3.5533985 39.4613991,3.55369173 C44.1640845,8.29116541 44.1640845,15.9724353 39.4613991,20.7100263 L38.5249953,21.6531812 L38.5255775,21.653709 C38.5255775,21.653709 21.5627268,38.7420722 21.4949343,38.8103662 C21.4948761,38.8104248 21.4947887,38.8104541 21.4947014,38.8104541 C21.4946432,38.8104541 21.4945559,38.8104248 21.4944977,38.8103662 C21.4943521,38.8102195 21.4942066,38.8100436 21.4942066,38.8100436 L21.4936826,38.8105714 L4.46280657,21.653709 L4.46333052,21.6531812 Z" id="Fill-1" fill="#4EDACB"></path>
                <path d="M23.4633305,21.6531812 L22.5271014,20.7100263 C17.8242995,15.9724353 17.8242995,8.29116541 22.5271014,3.55369173 C22.5272761,3.5533985 22.5274507,3.5533985 22.5276254,3.55310526 C27.2304272,-1.18436842 34.8552629,-1.18436842 39.5579484,3.55310526 L40.494061,4.49643609 L41.4304648,3.55310526 C46.1331502,-1.18436842 53.7579859,-1.18436842 58.4606714,3.55310526 C58.4609624,3.5533985 58.4612535,3.5533985 58.4612535,3.55369173 C63.16423,8.29116541 63.16423,15.9724353 58.4612535,20.7100263 L57.5251408,21.6531812 L57.525723,21.653709 C57.525723,21.653709 40.5627559,38.7420722 40.4949343,38.8103662 C40.4949343,38.8104248 40.4949343,38.8104541 40.4946432,38.8104541 L40.4946432,38.8103662 C40.4943521,38.8102195 40.494061,38.8100436 40.494061,38.8100436 L40.49377,38.8105714 L23.4628066,21.653709 L23.4633305,21.6531812 Z" id="Fill-2" fill="#9DE9E1"></path>
                <path d="M30.9941955,9.83173581e-05 C34.059837,0.0124930546 37.1216982,1.1968287 39.4608169,3.55310526 C39.4608169,3.5533985 39.461108,3.5533985 39.4613991,3.55369173 C44.1640845,8.29116541 44.1640845,15.9724353 39.4613991,20.7100263 L38.5249953,21.6531812 L38.5255775,21.653709 C38.5255775,21.653709 34.899842,25.3062722 30.9942178,29.2407951 L23.4628066,21.653709 L23.4633305,21.6531812 L22.5271014,20.7100263 C17.8242995,15.9724353 17.8242995,8.29116541 22.5271014,3.55369173 C22.5272761,3.5533985 22.5274507,3.5533985 22.5276254,3.55310526 C24.8666572,1.1968287 27.9285323,0.0124930549 30.9941955,9.83173616e-05 Z" id="Combined-Shape" fill="#3BB0A4"></path>
                <path d="M30.92723,7.76950376 C33.3271831,7.76950376 35.2759624,9.73255263 35.2759624,12.1504353 C35.2759624,14.5683474 33.3271831,16.5313669 30.92723,16.5313669 C28.527015,16.5313669 26.5784103,14.5683474 26.5784103,12.1504353 C26.5784103,9.73255263 28.527015,7.76950376 30.92723,7.76950376 Z" id="Fill-4" fill="#FFFFFF"></path>
            </g>
        </g>
    </g>
</svg>